<svg width="48" height="48" viewBox="0 0 48 48" fill="none" xmlns="http://www.w3.org/2000/svg">
<path d="M23.9995 20.5601C21.9595 20.5601 19.9195 20.2001 17.9795 19.5001C17.1995 19.2201 16.7995 18.3601 17.0795 17.5801C17.3795 16.8001 18.2395 16.4001 19.0195 16.6801C22.2395 17.8401 25.7795 17.8401 28.9995 16.6801C29.7795 16.4001 30.6395 16.8001 30.9195 17.5801C31.1995 18.3601 30.7995 19.2201 30.0195 19.5001C28.0795 20.2001 26.0395 20.5601 23.9995 20.5601Z" fill="currentColor"/>
<path d="M38.1396 45.5C37.1196 45.5 35.9996 45.2 34.9196 44.58L25.1596 39.16C24.5796 38.84 23.4396 38.84 22.8596 39.16L13.0996 44.58C11.1196 45.68 9.09965 45.8 7.55965 44.88C6.01965 43.98 5.13965 42.16 5.13965 39.9V11.72C5.13965 6.64 9.27965 2.5 14.3596 2.5H33.6596C38.7396 2.5 42.8797 6.64 42.8797 11.72V39.9C42.8797 42.16 41.9996 43.98 40.4596 44.88C39.7596 45.3 38.9596 45.5 38.1396 45.5ZM23.9996 35.92C24.9396 35.92 25.8596 36.12 26.5996 36.54L36.3596 41.96C37.3796 42.54 38.3196 42.66 38.9196 42.3C39.5196 41.94 39.8596 41.08 39.8596 39.9V11.72C39.8596 8.3 37.0596 5.5 33.6396 5.5H14.3596C10.9396 5.5 8.13965 8.3 8.13965 11.72V39.9C8.13965 41.08 8.47965 41.96 9.07965 42.3C9.67965 42.64 10.5996 42.54 11.6396 41.96L21.3996 36.54C22.1396 36.12 23.0596 35.92 23.9996 35.92Z" fill="currentColor"/>
<path d="M38.1396 45.5C37.1196 45.5 35.9996 45.2 34.9196 44.58L25.1596 39.16C24.5796 38.84 23.4396 38.84 22.8596 39.16L13.0996 44.58C11.1196 45.68 9.09965 45.8 7.55965 44.88C6.01965 43.98 5.13965 42.16 5.13965 39.9V11.72C5.13965 6.64 9.27965 2.5 14.3596 2.5H33.6596C38.7396 2.5 42.8797 6.64 42.8797 11.72V39.9C42.8797 42.16 41.9996 43.98 40.4596 44.88C39.7596 45.3 38.9596 45.5 38.1396 45.5ZM23.9996 35.92C24.9396 35.92 25.8596 36.12 26.5996 36.54L36.3596 41.96C37.3796 42.54 38.3196 42.66 38.9196 42.3C39.5196 41.94 39.8596 41.08 39.8596 39.9V11.72C39.8596 8.3 37.0596 5.5 33.6396 5.5H14.3596C10.9396 5.5 8.13965 8.3 8.13965 11.72V39.9C8.13965 41.08 8.47965 41.96 9.07965 42.3C9.67965 42.64 10.5996 42.54 11.6396 41.96L21.3996 36.54C22.1396 36.12 23.0596 35.92 23.9996 35.92Z" fill="currentColor"/>
</svg>
