<svg width="48" height="48" viewBox="0 0 48 48" fill="none" xmlns="http://www.w3.org/2000/svg">
<path d="M24 45.5C12.14 45.5 2.5 35.86 2.5 24C2.5 12.14 12.14 2.5 24 2.5C35.86 2.5 45.5 12.14 45.5 24C45.5 35.86 35.86 45.5 24 45.5ZM24 5.5C13.8 5.5 5.5 13.8 5.5 24C5.5 34.2 13.8 42.5 24 42.5C34.2 42.5 42.5 34.2 42.5 24C42.5 13.8 34.2 5.5 24 5.5Z" fill="#353535"/>
<path d="M21.4804 32.5598C21.1004 32.5598 20.7204 32.4198 20.4204 32.1198C19.8404 31.5398 19.8404 30.5798 20.4204 29.9998L26.4204 23.9998L20.4204 17.9998C19.8404 17.4198 19.8404 16.4598 20.4204 15.8798C21.0004 15.2998 21.9604 15.2998 22.5404 15.8798L29.6004 22.9398C30.1804 23.5198 30.1804 24.4798 29.6004 25.0598L22.5404 32.1198C22.2404 32.4198 21.8604 32.5598 21.4804 32.5598Z" fill="#353535"/>
</svg>
