<svg width="48" height="48" viewBox="0 0 48 48" fill="none" xmlns="http://www.w3.org/2000/svg">
<path d="M24 45.5C12.14 45.5 2.5 35.86 2.5 24C2.5 12.14 12.14 2.5 24 2.5C35.86 2.5 45.5 12.14 45.5 24C45.5 35.86 35.86 45.5 24 45.5ZM24 5.5C13.8 5.5 5.5 13.8 5.5 24C5.5 34.2 13.8 42.5 24 42.5C34.2 42.5 42.5 34.2 42.5 24C42.5 13.8 34.2 5.5 24 5.5Z" fill="currentColor"/>
<path d="M24.0003 30.0198C23.6203 30.0198 23.2403 29.8798 22.9403 29.5798L15.8803 22.5198C15.3003 21.9398 15.3003 20.9798 15.8803 20.3998C16.4603 19.8198 17.4203 19.8198 18.0003 20.3998L24.0003 26.3998L30.0003 20.3998C30.5803 19.8198 31.5403 19.8198 32.1203 20.3998C32.7003 20.9798 32.7003 21.9398 32.1203 22.5198L25.0603 29.5798C24.7603 29.8798 24.3803 30.0198 24.0003 30.0198Z" fill="currentColor"/>
</svg>
