<svg width="48" height="48" viewBox="0 0 48 48" fill="none" xmlns="http://www.w3.org/2000/svg">
<path d="M24 45.5C12.14 45.5 2.5 35.86 2.5 24C2.5 12.14 12.14 2.5 24 2.5C35.86 2.5 45.5 12.14 45.5 24C45.5 35.86 35.86 45.5 24 45.5ZM24 5.5C13.8 5.5 5.5 13.8 5.5 24C5.5 34.2 13.8 42.5 24 42.5C34.2 42.5 42.5 34.2 42.5 24C42.5 13.8 34.2 5.5 24 5.5Z" fill="#353535"/>
<path d="M26.5198 32.5598C26.1398 32.5598 25.7598 32.4198 25.4598 32.1198L18.3998 25.0598C17.8198 24.4798 17.8198 23.5198 18.3998 22.9398L25.4598 15.8798C26.0398 15.2998 26.9998 15.2998 27.5798 15.8798C28.1598 16.4598 28.1598 17.4198 27.5798 17.9998L21.5798 23.9998L27.5798 29.9998C28.1598 30.5798 28.1598 31.5398 27.5798 32.1198C27.2998 32.4198 26.9198 32.5598 26.5198 32.5598Z" fill="#353535"/>
</svg>
