<svg width="48" height="48" viewBox="0 0 48 48" fill="none" xmlns="http://www.w3.org/2000/svg">
<path d="M30 45.5H18C7.14 45.5 2.5 40.86 2.5 30V18C2.5 7.14 7.14 2.5 18 2.5H30C40.86 2.5 45.5 7.14 45.5 18V30C45.5 40.86 40.86 45.5 30 45.5ZM18 5.5C8.78 5.5 5.5 8.78 5.5 18V30C5.5 39.22 8.78 42.5 18 42.5H30C39.22 42.5 42.5 39.22 42.5 30V18C42.5 8.78 39.22 5.5 30 5.5H18Z" fill="#353535"/>
<path d="M24.0003 29.8201C23.6203 29.8201 23.2403 29.6801 22.9403 29.3801L15.8803 22.3201C15.3003 21.7401 15.3003 20.7801 15.8803 20.2001C16.4603 19.6201 17.4203 19.6201 18.0003 20.2001L24.0003 26.2001L30.0003 20.2001C30.5803 19.6201 31.5403 19.6201 32.1203 20.2001C32.7003 20.7801 32.7003 21.7401 32.1203 22.3201L25.0603 29.3801C24.7603 29.6801 24.3803 29.8201 24.0003 29.8201Z" fill="#353535"/>
</svg>
