<svg width="48" height="48" viewBox="0 0 48 48" fill="none" xmlns="http://www.w3.org/2000/svg">
<path d="M34.5595 22.4C34.1795 22.4 33.7995 22.2599 33.4995 21.9599C32.9195 21.3799 32.9195 20.4199 33.4995 19.8399L39.8795 13.4599L33.4995 7.0799C32.9195 6.4999 32.9195 5.5399 33.4995 4.9599C34.0795 4.3799 35.0394 4.3799 35.6194 4.9599L43.0595 12.4C43.3395 12.68 43.4995 13.0599 43.4995 13.4599C43.4995 13.8599 43.3395 14.24 43.0595 14.52L35.6194 21.9599C35.3194 22.2399 34.9395 22.4 34.5595 22.4Z" fill="currentColor"/>
<path d="M42 14.96H6C5.18 14.96 4.5 14.28 4.5 13.46C4.5 12.64 5.18 11.96 6 11.96H42C42.82 11.96 43.5 12.64 43.5 13.46C43.5 14.28 42.82 14.96 42 14.96Z" fill="currentColor"/>
<path d="M13.4399 43.4999C13.0599 43.4999 12.68 43.36 12.38 43.06L4.93994 35.6199C4.65994 35.3399 4.5 34.96 4.5 34.56C4.5 34.16 4.65994 33.7799 4.93994 33.4999L12.38 26.06C12.96 25.48 13.92 25.48 14.5 26.06C15.08 26.64 15.08 27.6 14.5 28.18L8.12 34.56L14.5 40.9399C15.08 41.5199 15.08 42.48 14.5 43.06C14.22 43.36 13.8399 43.4999 13.4399 43.4999Z" fill="currentColor"/>
<path d="M42 36.04H6C5.18 36.04 4.5 35.36 4.5 34.54C4.5 33.72 5.18 33.04 6 33.04H42C42.82 33.04 43.5 33.72 43.5 34.54C43.5 35.36 42.82 36.04 42 36.04Z" fill="currentColor"/>
</svg>
