<svg width="48" height="48" viewBox="0 0 48 48" fill="none" xmlns="http://www.w3.org/2000/svg">
<path d="M24.7603 33.8401H20.1802C19.3602 33.8401 18.6802 33.1601 18.6802 32.3401C18.6802 31.5201 19.3602 30.8401 20.1802 30.8401H24.7603C25.6203 30.8401 26.3203 30.1402 26.3203 29.2802C26.3203 28.4202 25.6203 27.7201 24.7603 27.7201H20.1802C19.7002 27.7201 19.2403 27.4801 18.9603 27.1001C18.6803 26.7201 18.6003 26.2001 18.7603 25.7401L20.2803 21.1602C20.4803 20.5402 21.0603 20.1401 21.7003 20.1401H27.8203C28.6403 20.1401 29.3203 20.8201 29.3203 21.6401C29.3203 22.4601 28.6403 23.1401 27.8203 23.1401H22.7803L22.2603 24.7201H24.7603C27.2803 24.7201 29.3203 26.7602 29.3203 29.2802C29.3203 31.8002 27.2803 33.8401 24.7603 33.8401Z" fill="#353535"/>
<path d="M20.0399 10.4399C19.6999 10.4399 19.3799 10.3399 19.0999 10.0999C18.4599 9.5799 18.36 8.63992 18.86 7.99992L22.82 3.05998C23.34 2.41998 24.28 2.31987 24.92 2.81987C25.56 3.33987 25.6599 4.27997 25.1599 4.91997L21.2 9.85991C20.92 10.2399 20.4799 10.4399 20.0399 10.4399Z" fill="#353535"/>
<path d="M23.9998 45.5C13.3798 45.5 4.71973 36.86 4.71973 26.22C4.71973 22.08 6.05975 18.1 8.61975 14.7C9.11975 14.04 10.0597 13.9 10.7197 14.4C11.3797 14.9 11.5198 15.84 11.0198 16.5C8.85978 19.38 7.71973 22.74 7.71973 26.22C7.71973 35.2 15.0198 42.5 23.9998 42.5C32.9798 42.5 40.2798 35.2 40.2798 26.22C40.2798 17.24 32.9798 9.93994 23.9998 9.93994C22.8398 9.93994 21.6598 10.08 20.3798 10.38C19.5798 10.56 18.7598 10.06 18.5798 9.26001C18.3998 8.46001 18.8998 7.63996 19.6998 7.45996C21.1998 7.11996 22.6198 6.93994 23.9998 6.93994C34.6198 6.93994 43.2798 15.58 43.2798 26.22C43.2798 36.86 34.6198 45.5 23.9998 45.5Z" fill="#353535"/>
</svg>
