<svg width="48" height="48" viewBox="0 0 48 48" fill="none" xmlns="http://www.w3.org/2000/svg">
<path d="M24 45.5C12.14 45.5 2.5 35.86 2.5 24C2.5 12.14 12.14 2.5 24 2.5C35.86 2.5 45.5 12.14 45.5 24C45.5 35.86 35.86 45.5 24 45.5ZM24 5.5C13.8 5.5 5.5 13.8 5.5 24C5.5 34.2 13.8 42.5 24 42.5C34.2 42.5 42.5 34.2 42.5 24C42.5 13.8 34.2 5.5 24 5.5Z" fill="#353535"/>
<path d="M18.3397 31.1602C17.9597 31.1602 17.5797 31.0202 17.2797 30.7202C16.6997 30.1402 16.6997 29.1802 17.2797 28.6002L28.5997 17.2802C29.1797 16.7002 30.1397 16.7002 30.7197 17.2802C31.2997 17.8602 31.2997 18.8202 30.7197 19.4002L19.3997 30.7202C19.1197 31.0202 18.7197 31.1602 18.3397 31.1602Z" fill="#353535"/>
<path d="M29.6597 31.1602C29.2797 31.1602 28.8997 31.0202 28.5997 30.7202L17.2797 19.4002C16.6997 18.8202 16.6997 17.8602 17.2797 17.2802C17.8597 16.7002 18.8197 16.7002 19.3997 17.2802L30.7197 28.6002C31.2997 29.1802 31.2997 30.1402 30.7197 30.7202C30.4197 31.0202 30.0397 31.1602 29.6597 31.1602Z" fill="#353535"/>
</svg>
