<svg width="48" height="48" viewBox="0 0 48 48" fill="none" xmlns="http://www.w3.org/2000/svg">
<path d="M7.90002 36.7201C6.98002 36.7201 6.04001 36.4801 5.20001 35.9801C3.50001 35.0001 2.5 33.2601 2.5 31.3001V16.6601C2.5 14.7001 3.50001 12.9601 5.20001 11.9801C6.90001 11.0001 8.91998 11.0001 10.6 11.9801L23.28 19.3001C23.86 19.6401 24.32 20.0401 24.68 20.4801C24.9 20.7401 25.02 21.0801 25.02 21.4201V26.5401C25.02 26.8801 24.9 27.2201 24.68 27.4801C24.32 27.9201 23.86 28.3202 23.32 28.6402L10.6 36.0001C9.75998 36.4801 8.84002 36.7201 7.90002 36.7201ZM7.90002 14.2802C7.48002 14.2802 7.08001 14.3801 6.70001 14.6001C5.94001 15.0401 5.5 15.8201 5.5 16.6801V31.3201C5.5 32.1801 5.94001 32.9602 6.70001 33.4002C7.46001 33.8402 8.33998 33.8402 9.09998 33.4002L21.78 26.0802C21.86 26.0402 21.94 25.9801 22 25.9201V22.0601C21.92 22.0001 21.84 21.9402 21.76 21.9002L9.09998 14.6001C8.71998 14.3801 8.32002 14.2802 7.90002 14.2802Z" fill="#353535"/>
<path d="M27.4195 36.7201C26.4995 36.7201 25.5595 36.4801 24.7195 35.9801C23.0195 35.0001 22.0195 33.2601 22.0195 31.3001V16.6601C22.0195 14.7001 23.0195 12.9601 24.7195 11.9801C26.4195 11.0001 28.4395 11.0001 30.1195 11.9801L42.7995 19.3001C44.4795 20.2801 45.4995 22.0201 45.4995 23.9801C45.4995 25.9401 44.4995 27.6801 42.7995 28.6601L30.1195 35.9801C29.2795 36.4801 28.3395 36.7201 27.4195 36.7201ZM27.4195 14.2802C26.9995 14.2802 26.5995 14.3801 26.2195 14.6001C25.4595 15.0401 25.0195 15.8001 25.0195 16.6801V31.3201C25.0195 32.1801 25.4595 32.9602 26.2195 33.4002C26.9795 33.8402 27.8795 33.8402 28.6195 33.4002L41.2995 26.0802C42.0595 25.6402 42.4995 24.8601 42.4995 24.0001C42.4995 23.1401 42.0595 22.3601 41.2995 21.9201L28.6195 14.6001C28.2395 14.3801 27.8395 14.2802 27.4195 14.2802Z" fill="#353535"/>
</svg>
