<svg width="48" height="48" viewBox="0 0 48 48" fill="none" xmlns="http://www.w3.org/2000/svg">
<path d="M24 32.5C18.76 32.5 14.5 28.24 14.5 23V12C14.5 6.76 18.76 2.5 24 2.5C29.24 2.5 33.5 6.76 33.5 12V23C33.5 28.24 29.24 32.5 24 32.5ZM24 5.5C20.42 5.5 17.5 8.42 17.5 12V23C17.5 26.58 20.42 29.5 24 29.5C27.58 29.5 30.5 26.58 30.5 23V12C30.5 8.42 27.58 5.5 24 5.5Z" fill="#353535"/>
<path d="M24.0002 39.4998C14.7402 39.4998 7.2002 31.9598 7.2002 22.6998V19.2998C7.2002 18.4798 7.8802 17.7998 8.7002 17.7998C9.5202 17.7998 10.2002 18.4798 10.2002 19.2998V22.6998C10.2002 30.2998 16.4002 36.4998 24.0002 36.4998C31.6002 36.4998 37.8002 30.2998 37.8002 22.6998V19.2998C37.8002 18.4798 38.4802 17.7998 39.3002 17.7998C40.1202 17.7998 40.8002 18.4798 40.8002 19.2998V22.6998C40.8002 31.9598 33.2602 39.4998 24.0002 39.4998Z" fill="#353535"/>
<path d="M26.7798 14.3601C26.6198 14.3601 26.4398 14.3401 26.2598 14.2801C24.7998 13.7401 23.1998 13.7401 21.7398 14.2801C20.9598 14.5601 20.0998 14.1601 19.8198 13.3801C19.5398 12.6001 19.9398 11.7401 20.7198 11.4601C22.8398 10.7001 25.1798 10.7001 27.2998 11.4601C28.0798 11.7401 28.4798 12.6001 28.1998 13.3801C27.9598 13.9801 27.3798 14.3601 26.7798 14.3601Z" fill="#353535"/>
<path d="M25.6002 18.6001C25.4602 18.6001 25.3402 18.5801 25.2002 18.5401C24.4002 18.3201 23.5802 18.3201 22.7802 18.5401C21.9802 18.7601 21.1602 18.2801 20.9402 17.4801C20.7202 16.7001 21.2002 15.8801 22.0002 15.6601C23.3002 15.3001 24.7002 15.3001 26.0002 15.6601C26.8002 15.8801 27.2802 16.7001 27.0602 17.5001C26.8802 18.1601 26.2602 18.6001 25.6002 18.6001Z" fill="#353535"/>
<path d="M24 45.5C23.18 45.5 22.5 44.82 22.5 44V38C22.5 37.18 23.18 36.5 24 36.5C24.82 36.5 25.5 37.18 25.5 38V44C25.5 44.82 24.82 45.5 24 45.5Z" fill="#353535"/>
</svg>
