<svg width="48" height="48" viewBox="0 0 48 48" fill="none" xmlns="http://www.w3.org/2000/svg">
<path d="M12.6195 40.1798C11.4795 40.1798 10.3595 39.8798 9.31952 39.2798C7.23952 38.0798 6.01953 35.9598 6.01953 33.5598V14.4198C6.01953 12.0398 7.25952 9.8998 9.31952 8.6998C11.3995 7.4998 13.8595 7.4998 15.9195 8.6998L32.4995 18.2598C34.5595 19.4598 35.7995 21.5998 35.7995 23.9798C35.7995 26.3598 34.5595 28.4998 32.4995 29.6998L15.9195 39.2598C14.8795 39.8798 13.7595 40.1798 12.6195 40.1798ZM12.6195 10.8198C11.9995 10.8198 11.3795 10.9798 10.8195 11.2998C9.69952 11.9598 9.01953 13.1198 9.01953 14.4198V33.5598C9.01953 34.8598 9.69952 36.0198 10.8195 36.6798C11.9395 37.3198 13.2995 37.3398 14.4195 36.6798L30.9995 27.1198C32.1195 26.4598 32.7995 25.2998 32.7995 23.9998C32.7995 22.6998 32.1195 21.5398 30.9995 20.8798L14.4195 11.3198C13.8595 10.9998 13.2395 10.8198 12.6195 10.8198Z" fill="currentColor"/>
<path d="M40.4805 37.8601C39.6605 37.8601 38.9805 37.1801 38.9805 36.3601V11.6401C38.9805 10.8201 39.6605 10.1401 40.4805 10.1401C41.3005 10.1401 41.9805 10.8201 41.9805 11.6401V36.3601C41.9805 37.1801 41.3205 37.8601 40.4805 37.8601Z" fill="currentColor"/>
</svg>
