<svg width="48" height="48" viewBox="0 0 48 48" fill="none" xmlns="http://www.w3.org/2000/svg">
<path d="M23.9404 45.5C12.1004 45.5 2.44043 35.86 2.44043 24C2.44043 12.14 12.1004 2.5 23.9404 2.5C35.7804 2.5 45.4404 12.14 45.4404 24C45.4404 35.86 35.8004 45.5 23.9404 45.5ZM23.9404 5.5C13.7404 5.5 5.44043 13.8 5.44043 24C5.44043 34.2 13.7404 42.5 23.9404 42.5C34.1404 42.5 42.4404 34.2 42.4404 24C42.4404 13.8 34.1404 5.5 23.9404 5.5Z" fill="currentColor"/>
<path d="M20.02 31.9001H17.42C15.58 31.9001 14.5 30.8401 14.5 29.0601V18.9401C14.5 17.1601 15.6 16.1001 17.42 16.1001H20C21.84 16.1001 22.92 17.1601 22.92 18.9401V29.0601C22.94 30.8401 21.84 31.9001 20.02 31.9001ZM17.5 28.9001H19.94V19.1001H17.52L17.5 28.9001Z" fill="currentColor"/>
<path d="M30.5801 31.9001H28.0001C26.1601 31.9001 25.0801 30.8401 25.0801 29.0601V18.9401C25.0801 17.1601 26.1801 16.1001 28.0001 16.1001H30.5801C32.4201 16.1001 33.5001 17.1601 33.5001 18.9401V29.0601C33.5001 30.8401 32.4001 31.9001 30.5801 31.9001ZM28.0601 28.9001H30.5001V19.1001H28.0801L28.0601 28.9001Z" fill="currentColor"/>
</svg>
