<svg width="48" height="48" viewBox="0 0 48 48" fill="none" xmlns="http://www.w3.org/2000/svg">
<path d="M24 31.5C19.86 31.5 16.5 28.14 16.5 24C16.5 19.86 19.86 16.5 24 16.5C28.14 16.5 31.5 19.86 31.5 24C31.5 28.14 28.14 31.5 24 31.5ZM24 19.5C21.52 19.5 19.5 21.52 19.5 24C19.5 26.48 21.52 28.5 24 28.5C26.48 28.5 28.5 26.48 28.5 24C28.5 21.52 26.48 19.5 24 19.5Z" fill="currentColor"/>
<path d="M30.42 44.3801C30 44.3801 29.58 44.3201 29.16 44.2201C27.92 43.8801 26.88 43.1001 26.22 42.0001L25.98 41.6001C24.8 39.5601 23.18 39.5601 22 41.6001L21.78 41.9801C21.12 43.1001 20.08 43.9001 18.84 44.2201C17.58 44.5601 16.28 44.3801 15.18 43.7201L11.74 41.7401C10.52 41.0401 9.64 39.9001 9.26 38.5201C8.9 37.1401 9.08 35.7201 9.78 34.5001C10.36 33.4801 10.52 32.5601 10.18 31.9801C9.84 31.4001 8.98 31.0601 7.8 31.0601C4.88 31.0601 2.5 28.6801 2.5 25.7601V22.2401C2.5 19.3201 4.88 16.9401 7.8 16.9401C8.98 16.9401 9.84 16.6001 10.18 16.0201C10.52 15.4401 10.38 14.5201 9.78 13.5001C9.08 12.2801 8.9 10.8401 9.26 9.48008C9.62 8.10008 10.5 6.96008 11.74 6.26008L15.2 4.28008C17.46 2.94008 20.44 3.72008 21.8 6.02008L22.04 6.42008C23.22 8.46008 24.84 8.46008 26.02 6.42008L26.24 6.04008C27.6 3.72008 30.58 2.94008 32.86 4.30008L36.3 6.28008C37.52 6.98008 38.4 8.12008 38.78 9.50008C39.14 10.8801 38.96 12.3001 38.26 13.5201C37.68 14.5401 37.52 15.4601 37.86 16.0401C38.2 16.6201 39.06 16.9601 40.24 16.9601C43.16 16.9601 45.54 19.3401 45.54 22.2601V25.7801C45.54 28.7001 43.16 31.0801 40.24 31.0801C39.06 31.0801 38.2 31.4201 37.86 32.0001C37.52 32.5801 37.66 33.5001 38.26 34.5201C38.96 35.7401 39.16 37.1801 38.78 38.5401C38.42 39.9201 37.54 41.0601 36.3 41.7601L32.84 43.7401C32.08 44.1601 31.26 44.3801 30.42 44.3801ZM24 36.9801C25.78 36.9801 27.44 38.1001 28.58 40.0801L28.8 40.4601C29.04 40.8801 29.44 41.1801 29.92 41.3001C30.4 41.4201 30.88 41.3601 31.28 41.1201L34.74 39.1201C35.26 38.8201 35.66 38.3201 35.82 37.7201C35.98 37.1201 35.9 36.5001 35.6 35.9801C34.46 34.0201 34.32 32.0001 35.2 30.4601C36.08 28.9201 37.9 28.0401 40.18 28.0401C41.46 28.0401 42.48 27.0201 42.48 25.7401V22.2201C42.48 20.9601 41.46 19.9201 40.18 19.9201C37.9 19.9201 36.08 19.0401 35.2 17.5001C34.32 15.9601 34.46 13.9401 35.6 11.9801C35.9 11.4601 35.98 10.8401 35.82 10.2401C35.66 9.64008 35.28 9.16008 34.76 8.84008L31.3 6.86008C30.44 6.34008 29.3 6.64008 28.78 7.52008L28.56 7.90008C27.42 9.88008 25.76 11.0001 23.98 11.0001C22.2 11.0001 20.54 9.88008 19.4 7.90008L19.18 7.50008C18.68 6.66008 17.56 6.36008 16.7 6.86008L13.24 8.86008C12.72 9.16008 12.32 9.66008 12.16 10.2601C12 10.8601 12.08 11.4801 12.38 12.0001C13.52 13.9601 13.66 15.9801 12.78 17.5201C11.9 19.0601 10.08 19.9401 7.8 19.9401C6.52 19.9401 5.5 20.9601 5.5 22.2401V25.7601C5.5 27.0201 6.52 28.0601 7.8 28.0601C10.08 28.0601 11.9 28.9401 12.78 30.4801C13.66 32.0201 13.52 34.0401 12.38 36.0001C12.08 36.5201 12 37.1401 12.16 37.7401C12.32 38.3401 12.7 38.8201 13.22 39.1401L16.68 41.1201C17.1 41.3801 17.6 41.4401 18.06 41.3201C18.54 41.2001 18.94 40.8801 19.2 40.4601L19.42 40.0801C20.56 38.1201 22.22 36.9801 24 36.9801Z" fill="currentColor"/>
</svg>
