<svg width="48" height="48" viewBox="0 0 48 48" fill="none" xmlns="http://www.w3.org/2000/svg">
<path d="M42 10.5H6C5.18 10.5 4.5 9.82 4.5 9C4.5 8.18 5.18 7.5 6 7.5H42C42.82 7.5 43.5 8.18 43.5 9C43.5 9.82 42.82 10.5 42 10.5Z" fill="#353535"/>
<path d="M41.9996 20.5H23.0596C22.2396 20.5 21.5596 19.82 21.5596 19C21.5596 18.18 22.2396 17.5 23.0596 17.5H41.9996C42.8196 17.5 43.4996 18.18 43.4996 19C43.4996 19.82 42.8196 20.5 41.9996 20.5Z" fill="#353535"/>
<path d="M42 30.5H6C5.18 30.5 4.5 29.82 4.5 29C4.5 28.18 5.18 27.5 6 27.5H42C42.82 27.5 43.5 28.18 43.5 29C43.5 29.82 42.82 30.5 42 30.5Z" fill="#353535"/>
<path d="M41.9996 40.5H23.0596C22.2396 40.5 21.5596 39.82 21.5596 39C21.5596 38.18 22.2396 37.5 23.0596 37.5H41.9996C42.8196 37.5 43.4996 38.18 43.4996 39C43.4996 39.82 42.8196 40.5 41.9996 40.5Z" fill="#353535"/>
</svg>
