<svg width="48" height="48" viewBox="0 0 48 48" fill="none" xmlns="http://www.w3.org/2000/svg">
<path d="M42 10.5H6C5.18 10.5 4.5 9.82 4.5 9C4.5 8.18 5.18 7.5 6 7.5H42C42.82 7.5 43.5 8.18 43.5 9C43.5 9.82 42.82 10.5 42 10.5Z" fill="currentColor"/>
<path d="M24.94 20.5H6C5.18 20.5 4.5 19.82 4.5 19C4.5 18.18 5.18 17.5 6 17.5H24.94C25.76 17.5 26.44 18.18 26.44 19C26.44 19.82 25.78 20.5 24.94 20.5Z" fill="currentColor"/>
<path d="M42 30.5H6C5.18 30.5 4.5 29.82 4.5 29C4.5 28.18 5.18 27.5 6 27.5H42C42.82 27.5 43.5 28.18 43.5 29C43.5 29.82 42.82 30.5 42 30.5Z" fill="currentColor"/>
<path d="M24.94 40.5H6C5.18 40.5 4.5 39.82 4.5 39C4.5 38.18 5.18 37.5 6 37.5H24.94C25.76 37.5 26.44 38.18 26.44 39C26.44 39.82 25.78 40.5 24.94 40.5Z" fill="currentColor"/>
</svg>
