<svg width="48" height="48" viewBox="0 0 48 48" fill="none" xmlns="http://www.w3.org/2000/svg">
<path d="M14 35.5002H10C5.16 35.5002 2.5 32.8402 2.5 28.0002V20.0002C2.5 15.1602 5.16 12.5002 10 12.5002H12.86C13.32 12.5002 13.78 12.3602 14.18 12.1202L20.02 8.46023C22.94 6.64023 25.78 6.30023 28.02 7.54023C30.26 8.78023 31.48 11.3602 31.48 14.8202V16.7402C31.48 17.5602 30.8 18.2402 29.98 18.2402C29.16 18.2402 28.48 17.5602 28.48 16.7402V14.8202C28.48 12.5402 27.78 10.8402 26.56 10.1802C25.34 9.50023 23.54 9.80023 21.6 11.0202L15.76 14.6602C14.9 15.2202 13.88 15.5002 12.86 15.5002H10C6.84 15.5002 5.5 16.8402 5.5 20.0002V28.0002C5.5 31.1602 6.84 32.5002 10 32.5002H14C14.82 32.5002 15.5 33.1802 15.5 34.0002C15.5 34.8202 14.82 35.5002 14 35.5002Z" fill="currentColor"/>
<path d="M25.1002 41.1799C23.5202 41.1799 21.7802 40.6199 20.0402 39.5199C19.3402 39.0799 19.1202 38.1599 19.5602 37.4599C20.0002 36.7599 20.9202 36.5399 21.6202 36.9799C23.5602 38.1799 25.3602 38.4999 26.5802 37.8199C27.8002 37.1399 28.5002 35.4399 28.5002 33.1799V25.8999C28.5002 25.0799 29.1802 24.3999 30.0002 24.3999C30.8202 24.3999 31.5002 25.0799 31.5002 25.8999V33.1799C31.5002 36.6199 30.2602 39.2199 28.0402 40.4599C27.1402 40.9399 26.1402 41.1799 25.1002 41.1799Z" fill="currentColor"/>
<path d="M35.9996 33.5001C35.6796 33.5001 35.3796 33.4001 35.0996 33.2001C34.4396 32.7001 34.2996 31.7601 34.7996 31.1001C37.3196 27.7401 37.8596 23.2801 36.2396 19.4201C35.9196 18.6601 36.2796 17.7801 37.0396 17.4601C37.7996 17.1401 38.6796 17.5001 38.9996 18.2601C41.0396 23.1001 40.3396 28.7201 37.1996 32.9201C36.8996 33.3001 36.4596 33.5001 35.9996 33.5001Z" fill="currentColor"/>
<path d="M39.6597 38.4999C39.3397 38.4999 39.0397 38.3999 38.7597 38.1999C38.0997 37.6999 37.9597 36.7599 38.4597 36.0999C42.7397 30.3999 43.6797 22.7599 40.9197 16.1799C40.5997 15.4199 40.9597 14.5399 41.7197 14.2199C42.4997 13.8999 43.3597 14.2599 43.6797 15.0199C46.8597 22.5799 45.7797 31.3399 40.8597 37.8999C40.5797 38.2999 40.1197 38.4999 39.6597 38.4999Z" fill="currentColor"/>
<path d="M3.99988 45.4999C3.61988 45.4999 3.23988 45.3599 2.93988 45.0599C2.35988 44.4799 2.35988 43.5199 2.93988 42.9399L42.9399 2.93988C43.5199 2.35988 44.4799 2.35988 45.0599 2.93988C45.6399 3.51988 45.6399 4.47988 45.0599 5.05988L5.05988 45.0599C4.75988 45.3599 4.37988 45.4999 3.99988 45.4999Z" fill="currentColor"/>
</svg>
