<svg width="48" height="48" viewBox="0 0 48 48" fill="none" xmlns="http://www.w3.org/2000/svg">
<path d="M25.1 41.1802C23.52 41.1802 21.78 40.6202 20.04 39.5202L14.2 35.8602C13.8 35.6202 13.34 35.4802 12.88 35.4802H10C5.16 35.4802 2.5 32.8202 2.5 27.9802V19.9802C2.5 15.1402 5.16 12.4802 10 12.4802H12.86C13.32 12.4802 13.78 12.3402 14.18 12.1002L20.02 8.44021C22.94 6.62021 25.78 6.28021 28.02 7.52021C30.26 8.76021 31.48 11.3402 31.48 14.8002V33.1402C31.48 36.5802 30.24 39.1802 28.02 40.4202C27.14 40.9402 26.14 41.1802 25.1 41.1802ZM10 15.5002C6.84 15.5002 5.5 16.8402 5.5 20.0002V28.0002C5.5 31.1602 6.84 32.5002 10 32.5002H12.86C13.9 32.5002 14.9 32.7802 15.78 33.3402L21.62 37.0002C23.54 38.2002 25.36 38.5202 26.58 37.8402C27.8 37.1602 28.5 35.4602 28.5 33.2002V14.8202C28.5 12.5402 27.8 10.8402 26.58 10.1802C25.36 9.50021 23.54 9.80021 21.62 11.0202L15.76 14.6602C14.9 15.2202 13.88 15.5002 12.86 15.5002H10Z" fill="currentColor"/>
<path d="M35.9996 33.5001C35.6796 33.5001 35.3796 33.4001 35.0996 33.2001C34.4396 32.7001 34.2996 31.7601 34.7996 31.1001C37.9396 26.9201 37.9396 21.0801 34.7996 16.9001C34.2996 16.2401 34.4396 15.3001 35.0996 14.8001C35.7596 14.3001 36.6996 14.4401 37.1996 15.1001C41.1196 20.3401 41.1196 27.6601 37.1996 32.9001C36.8996 33.3001 36.4596 33.5001 35.9996 33.5001Z" fill="currentColor"/>
<path d="M39.6597 38.5001C39.3397 38.5001 39.0397 38.4001 38.7597 38.2001C38.0997 37.7001 37.9597 36.7601 38.4597 36.1001C43.7997 28.9801 43.7997 19.0201 38.4597 11.9001C37.9597 11.2401 38.0997 10.3001 38.7597 9.80006C39.4197 9.30006 40.3597 9.44006 40.8597 10.1001C46.9997 18.2801 46.9997 29.7201 40.8597 37.9001C40.5797 38.3001 40.1197 38.5001 39.6597 38.5001Z" fill="currentColor"/>
</svg>
